<svg xmlns="http://www.w3.org/2000/svg" viewBox="0 0 50 38"><defs><style>.cls-1{isolation:isolate;}.cls-2{fill:#e69100;}.cls-3,.cls-4{fill:#fb0;}.cls-4,.cls-7{opacity:0.2;mix-blend-mode:screen;}.cls-5{fill:#a3bad4;}.cls-6,.cls-7{fill:#b8d9ff;}</style></defs><g class="cls-1"><g id="Layer_1" data-name="Layer 1"><g id="sun_cloud"><path class="cls-2" d="M18.49,7.71A10.19,10.19,0,1,0,28.68,17.9,10.19,10.19,0,0,0,18.49,7.71Z"/><path class="cls-2" d="M29.65,22.52l5.9-4.74-.16-.13-5.81-4.57.72-7.25-7.22.75L18.49,1,13.93,6.59l-7.29-.8.76,7.29L1.61,17.64l-.15.12,5.88,4.76-.79,7.07,0,.25,7.24-.78,4.73,5.81,4.73-5.82,7.22.8Zm-6.54,6.26a15.39,15.39,0,0,1-4.62.88,15.22,15.22,0,0,1-4.58-.91,14,14,0,0,1-3.74-2.53,14.83,14.83,0,0,1-2.72-3.75,14.86,14.86,0,0,1,0-9.14,14.83,14.83,0,0,1,2.72-3.75,15.12,15.12,0,0,1,3.75-2.73,14.9,14.9,0,0,1,9.15,0,15,15,0,0,1,6.47,6.47,14.9,14.9,0,0,1,0,9.15,15.12,15.12,0,0,1-2.73,3.75A14,14,0,0,1,23.11,28.78Z"/><path class="cls-3" d="M28.68,17.65A10.19,10.19,0,1,1,18.49,7.46,10.19,10.19,0,0,1,28.68,17.65Z"/><path class="cls-3" d="M29.65,22.27l5.74-4.62L29.65,13l.79-7.33-7.33.8L18.49.75,13.87,6.5,6.54,5.7,7.34,13,1.59,17.65l5.75,4.62-.8,7.33,7.33-.8,4.62,5.75,4.62-5.75,7.33.8ZM23.07,28.7a14.9,14.9,0,0,1-9.15,0A14.87,14.87,0,0,1,10.17,26a15.21,15.21,0,0,1-2.72-3.74,14.9,14.9,0,0,1,0-9.15,15.08,15.08,0,0,1,2.72-3.75,14.83,14.83,0,0,1,3.75-2.72,14.86,14.86,0,0,1,9.14,0,14.83,14.83,0,0,1,3.75,2.72,15.12,15.12,0,0,1,2.73,3.75,14.9,14.9,0,0,1,0,9.15A15.26,15.26,0,0,1,26.81,26,15.07,15.07,0,0,1,23.07,28.7Z"/><path class="cls-4" d="M18.49,17.65a91.18,91.18,0,0,1,10.18.55c0-.18,0-.36,0-.55a10.19,10.19,0,1,0-20.37,0c0,.19,0,.37,0,.55A91.13,91.13,0,0,1,18.49,17.65Z"/><path class="cls-4" d="M3.21,19c1.14-.21,2.33-.39,3.55-.55,0-.25,0-.5,0-.75a15,15,0,0,1,.72-4.57,15.08,15.08,0,0,1,2.72-3.75,14.83,14.83,0,0,1,3.75-2.72,14.86,14.86,0,0,1,9.14,0,14.83,14.83,0,0,1,3.75,2.72,15.12,15.12,0,0,1,2.73,3.75,15,15,0,0,1,.72,4.57c0,.25,0,.5,0,.75,1.22.16,2.41.34,3.54.55l1.62-1.3L29.65,13l.79-7.33-7.33.8L18.49.75,13.87,6.5,6.54,5.7,7.34,13,1.59,17.65Z"/><path class="cls-5" d="M42.79,22a8.05,8.05,0,0,0-1.11.08,4.76,4.76,0,0,0-4.35-2.75,4.6,4.6,0,0,0-.64.05A4.25,4.25,0,0,0,28.26,19a3.92,3.92,0,0,0-1.08-.16A4.43,4.43,0,0,0,22.89,23a4,4,0,0,0-2.1-.59A4.46,4.46,0,0,0,16.49,27a4.3,4.3,0,0,0,4.94,4.54,4.31,4.31,0,0,0,4,3,4.06,4.06,0,0,0,1.7-.37,7.11,7.11,0,0,0,5.11,2c2.82,0,5.21-1.38,6-3.28a4.08,4.08,0,0,0,2.57.92,4.31,4.31,0,0,0,4-2.86c2.19-.65,3.75-2.33,3.75-4.3C48.54,24.05,46,22,42.79,22Z"/><path class="cls-6" d="M42.79,21.68a6.74,6.74,0,0,0-1.11.09A4.76,4.76,0,0,0,37.33,19a4.6,4.6,0,0,0-.64,0,4.25,4.25,0,0,0-8.43-.34,4.33,4.33,0,0,0-1.08-.15,4.43,4.43,0,0,0-4.29,4.14,4.06,4.06,0,0,0-2.1-.58,4.45,4.45,0,0,0-4.3,4.59,4.46,4.46,0,0,0,4.3,4.59,3.39,3.39,0,0,0,.64-.06,4.32,4.32,0,0,0,4,3,4.07,4.07,0,0,0,1.7-.38,7.11,7.11,0,0,0,5.11,1.95c2.82,0,5.21-1.38,6-3.27a4.14,4.14,0,0,0,2.57.92,4.32,4.32,0,0,0,4-2.86c2.19-.65,3.75-2.33,3.75-4.31C48.54,23.74,46,21.68,42.79,21.68Z"/><path class="cls-7" d="M32.52,25.45a60.69,60.69,0,0,1,15.85,1.94,3.8,3.8,0,0,0,.17-1.12c0-2.53-2.57-4.59-5.75-4.59a6.74,6.74,0,0,0-1.11.09A4.76,4.76,0,0,0,37.33,19a4.6,4.6,0,0,0-.64,0,4.25,4.25,0,0,0-8.43-.34,4.33,4.33,0,0,0-1.08-.15,4.43,4.43,0,0,0-4.29,4.14,4.06,4.06,0,0,0-2.1-.58,4.45,4.45,0,0,0-4.3,4.59,4,4,0,0,0,.06.7A60.55,60.55,0,0,1,32.52,25.45Z"/></g></g></g></svg>