<svg id="Capa_1" data-name="Capa 1" xmlns="http://www.w3.org/2000/svg" xmlns:xlink="http://www.w3.org/1999/xlink" viewBox="0 0 64.68 50.96"><defs><style>.cls-1{fill:url(#linear-gradient);}.cls-2{fill:url(#linear-gradient-2);}.cls-3{fill:url(#linear-gradient-3);}.cls-4{fill:url(#linear-gradient-4);}.cls-5{fill:url(#linear-gradient-5);}.cls-6{fill:url(#linear-gradient-6);}.cls-7{fill:url(#linear-gradient-7);}.cls-8{fill:url(#linear-gradient-8);}.cls-9{fill:url(#linear-gradient-9);}</style><linearGradient id="linear-gradient" x1="62" y1="13.81" x2="2" y2="13.81" gradientUnits="userSpaceOnUse"><stop offset="0.67" stop-color="#f7ec45"/><stop offset="1" stop-color="#f1d14f"/></linearGradient><linearGradient id="linear-gradient-2" x1="62" y1="33.87" x2="2" y2="33.87" gradientUnits="userSpaceOnUse"><stop offset="0.67" stop-color="#76aadb"/><stop offset="1" stop-color="#4a72b2"/></linearGradient><linearGradient id="linear-gradient-3" x1="62" y1="24.42" x2="2" y2="24.42" gradientUnits="userSpaceOnUse"><stop offset="0.67" stop-color="#4a72b2"/><stop offset="1" stop-color="#002e82"/></linearGradient><linearGradient id="linear-gradient-4" x1="62" y1="24.45" x2="2" y2="24.45" gradientUnits="userSpaceOnUse"><stop offset="0.67" stop-color="#f7f7f8"/><stop offset="1" stop-color="#edeef0"/></linearGradient><linearGradient id="linear-gradient-5" x1="62" y1="23.5" x2="2" y2="23.5" gradientUnits="userSpaceOnUse"><stop offset="0.67" stop-color="#cb6120"/><stop offset="1" stop-color="#a01127"/></linearGradient><linearGradient id="linear-gradient-6" x1="62" y1="33.44" x2="41.12" y2="33.44" xlink:href="#linear-gradient-5"/><linearGradient id="linear-gradient-7" x1="62" y1="9.2" x2="38" y2="9.2" xlink:href="#linear-gradient-5"/><linearGradient id="linear-gradient-8" x1="26" y1="39.11" x2="2" y2="39.11" xlink:href="#linear-gradient-5"/><linearGradient id="linear-gradient-9" x1="23.01" y1="10.77" x2="2" y2="10.77" xlink:href="#linear-gradient-5"/></defs><path class="cls-1" d="M62,5.26C42-8.07,22,14.6,2,1.26v22c20,12,40-12,60,0Z"/><path class="cls-2" d="M2,23.26v22c20,10.67,40-14.66,60-4v-18C42,11.26,22,35.26,2,23.26Z"/><path class="cls-3" d="M62,41.26c-20-10.66-40,14.67-60,4v-44c20,13.34,40-9.33,60,4Z"/><path class="cls-4" d="M62,9.43V5.26A25.66,25.66,0,0,0,55.11,2C49.41,3.78,43.7,8.05,38,13.12V1.94c-4,.78-8,1.86-12,2.65V16.23A53.32,53.32,0,0,1,8.88,4.54,25.65,25.65,0,0,1,2,1.26v5.1a56.06,56.06,0,0,0,14.05,14A24.55,24.55,0,0,1,2,16.66v13.2A23.94,23.94,0,0,0,16.11,33C11.41,36.63,6.7,39.34,2,40.21v5a22.08,22.08,0,0,0,6.94,2.37C14.62,44.49,20.31,39.32,26,33.79v11.6c4-1.32,8-2.93,12-4.25V30A58.45,58.45,0,0,1,55.06,38.9,22.3,22.3,0,0,1,62,41.26V37.13A52.39,52.39,0,0,0,47.89,25.52,24,24,0,0,1,62,28.66V17.86a24.65,24.65,0,0,0-14.06-3.71C52.63,11.07,57.31,9.19,62,9.43Z"/><path class="cls-5" d="M35.5,18.77V2.46c-2.33.52-4.67,1.09-7,1.61V20.76C19.67,23.2,10.83,24.82,2,19.41v7.7c8.83,5.2,17.67,3.37,26.5.73V44.53c2.33-.82,4.67-1.71,7-2.54V25.69c8.83-2.65,17.67-4.47,26.5.72v-6.3C53.17,14.71,44.33,16.33,35.5,18.77Z"/><path class="cls-6" d="M45.87,25.72a44.44,44.44,0,0,0-4.75.88A52.65,52.65,0,0,1,62,41.16V38.31A52,52,0,0,0,45.87,25.72Z"/><path class="cls-7" d="M57.26,2.74C50.84,4.05,44.42,8.76,38,14.49v1.17c1-.24,2-.47,3-.66C48,9.07,55,4.79,62,5.27h0A26.58,26.58,0,0,0,57.26,2.74Z"/><path class="cls-8" d="M2,45.14v.12a22.55,22.55,0,0,0,4.58,1.85c6.47-2.86,13-8.64,19.42-14.89V31.11c-1,.3-2.08.57-3.12.82C15.92,38.35,9,43.76,2,45.14Z"/><path class="cls-9" d="M18.26,20.25c1.58-.15,3.17-.4,4.75-.71C16,16.14,9,11.08,2,1.29V4.77A54.77,54.77,0,0,0,18.26,20.25Z"/></svg>