<svg xmlns="http://www.w3.org/2000/svg" xmlns:xlink="http://www.w3.org/1999/xlink" viewBox="0 0 315.57 92.94"><defs><style>.cls-1{isolation:isolate;}.cls-2{fill:#fff;}.cls-3{fill:url(#linear-gradient);}.cls-4{fill:url(#linear-gradient-2);}.cls-5{opacity:0.5;}.cls-12,.cls-5{mix-blend-mode:overlay;}.cls-10,.cls-11,.cls-6,.cls-7,.cls-8,.cls-9{mix-blend-mode:screen;}.cls-6{fill:url(#linear-gradient-3);}.cls-7{fill:url(#linear-gradient-4);}.cls-8{fill:url(#Degradado_sin_nombre_11);}.cls-9{fill:url(#Degradado_sin_nombre_12);}.cls-10{fill:url(#Degradado_sin_nombre_8);}.cls-11{fill:url(#Degradado_sin_nombre_10);}.cls-12{opacity:0.19;}</style><linearGradient id="linear-gradient" x1="70.25" y1="47.4" x2="133.29" y2="47.4" gradientUnits="userSpaceOnUse"><stop offset="0" stop-color="#ff2f60"/><stop offset="0.57" stop-color="#ffaf0e"/></linearGradient><linearGradient id="linear-gradient-2" x1="7.25" y1="47.51" x2="83.02" y2="47.51" gradientUnits="userSpaceOnUse"><stop offset="0.09" stop-color="#703de0"/><stop offset="0.94" stop-color="#11e6f8"/></linearGradient><linearGradient id="linear-gradient-3" x1="39.6" y1="47.41" x2="83.02" y2="47.41" gradientUnits="userSpaceOnUse"><stop offset="0" stop-color="#fff"/><stop offset="0.01" stop-color="#f6f6f6"/><stop offset="0.05" stop-color="#c8c8c8"/><stop offset="0.09" stop-color="#9d9d9d"/><stop offset="0.14" stop-color="#777"/><stop offset="0.2" stop-color="#575757"/><stop offset="0.26" stop-color="#3c3c3c"/><stop offset="0.32" stop-color="#262626"/><stop offset="0.4" stop-color="#151515"/><stop offset="0.5" stop-color="#090909"/><stop offset="0.63" stop-color="#020202"/><stop offset="1"/></linearGradient><linearGradient id="linear-gradient-4" x1="89.86" y1="47.37" x2="133.29" y2="47.37" xlink:href="#linear-gradient-3"/><linearGradient id="Degradado_sin_nombre_11" x1="18.93" y1="41.22" x2="44.99" y2="15.16" xlink:href="#linear-gradient-3"/><linearGradient id="Degradado_sin_nombre_12" x1="69.61" y1="41.61" x2="95.68" y2="15.55" xlink:href="#linear-gradient-3"/><linearGradient id="Degradado_sin_nombre_8" x1="32.38" y1="53.58" x2="32.38" y2="85.25" xlink:href="#linear-gradient-3"/><linearGradient id="Degradado_sin_nombre_10" x1="83.2" y1="85.36" x2="102.11" y2="74.44" xlink:href="#linear-gradient-3"/></defs><g class="cls-1"><g id="OBJECTS"><path class="cls-2" d="M139.1,70.06V85.13h-.91V70.06Z"/><path class="cls-2" d="M152.49,70.06l-5.6,15.07h-1.06l-5.72-15.07h1l4.51,12.07c.11.28.25.68.42,1.21l.32,1q.1-.45.72-2.16l4.46-12.11Z"/><path class="cls-2" d="M158.1,70.06l6,15.07h-1l-1.89-4.87h-7.26L152,85.13h-1l6.12-15.07Zm2.8,9.44-2.76-7c-.07-.17-.16-.44-.28-.81s-.21-.62-.27-.78L157,72.45l-2.81,7Z"/><path class="cls-2" d="M176.7,70.06V85.13h-1L167.22,73.2c-.55-.79-1-1.49-1.31-2.08q.06.57.06,2.31v11.7h-.88V70.06h1l8.28,11.73c.46.67,1,1.43,1.46,2.26q-.06-1.41-.06-2.88l0-11.11Z"/><path class="cls-2" d="M189.57,70.06v.81h-9.25v6H189v.8h-8.68v6.63h9.34v.8H179.41V70.06Z"/><path class="cls-2" d="M201.32,70.06v.81H196V85.13h-.91V70.87h-5.35v-.81Z"/><path class="cls-2" d="M213.1,74.36h-.91q-.23-3.81-4.74-3.81a5.11,5.11,0,0,0-3.11.84,2.71,2.71,0,0,0-1.12,2.31,2.74,2.74,0,0,0,.23,1.15,2.36,2.36,0,0,0,.62.8,3.53,3.53,0,0,0,1,.56,9.22,9.22,0,0,0,1.26.4c.43.11.94.22,1.51.35l.7.15,1,.24c.2.05.52.14.95.28a5.71,5.71,0,0,1,1,.37,6.18,6.18,0,0,1,.78.49,2.34,2.34,0,0,1,.67.66,4.17,4.17,0,0,1,.4.87,3.72,3.72,0,0,1,.16,1.13,3.77,3.77,0,0,1-1.5,3.16,8,8,0,0,1-8.52-.19,4.91,4.91,0,0,1-1.59-4h.86a4.31,4.31,0,0,0,1.39,3.41,5.65,5.65,0,0,0,3.76,1.14,5.79,5.79,0,0,0,3.47-.92,3,3,0,0,0,1.25-2.58,2.46,2.46,0,0,0-.15-.88,3.51,3.51,0,0,0-.35-.7,2.1,2.1,0,0,0-.59-.55,6.17,6.17,0,0,0-.69-.4,4.76,4.76,0,0,0-.84-.31c-.36-.11-.63-.18-.81-.22l-.86-.19-.77-.17a21.83,21.83,0,0,1-3.11-.89,3.26,3.26,0,0,1-2.12-3.16,3.48,3.48,0,0,1,1.39-2.91,6.11,6.11,0,0,1,3.82-1.06,6.29,6.29,0,0,1,3.95,1.14A4.49,4.49,0,0,1,213.1,74.36Z"/><path class="cls-2" d="M139.08,34.47V7h7.62l14,16.75h-3.54V7h9.05V34.47h-7.63l-14-16.75h3.54V34.47Z"/><path class="cls-2" d="M179.81,27.47h13.77v7H170.69V7h22.38v7H179.81Zm-.63-10.3h12.27v6.69H179.18Z"/><path class="cls-2" d="M203.72,34.47,194.91,7h9.56l7.12,23.24h-4.8L214.34,7h8.53l7,23.24h-4.6L232.74,7h8.81l-8.81,27.52h-10l-5.74-19h2.68l-6.06,19Z"/><path class="cls-2" d="M145.3,61.78h-6.82V41.56h16.43V46.7H145.3Zm-.47-11.62h8.9v5.15h-8.9Z"/><path class="cls-2" d="M157.08,61.78V41.56h9.73a12,12,0,0,1,4.9.92,7,7,0,0,1,4.32,6.7,6.85,6.85,0,0,1-4.32,6.62,12.39,12.39,0,0,1-4.9.89h-5.95l3-2.8v7.89Zm6.82-7.14-3-3.09h5.52a3,3,0,0,0,2.09-.63,2.26,2.26,0,0,0,.68-1.74,2.22,2.22,0,0,0-.68-1.73,3,3,0,0,0-2.09-.64h-5.52l3-3.09Zm5.28,7.14-5-7.37h7.23l5,7.37Z"/><path class="cls-2" d="M189.23,62.24a13,13,0,0,1-4.58-.78A10.76,10.76,0,0,1,181,59.25a10.17,10.17,0,0,1-2.38-3.37A10.38,10.38,0,0,1,181,44.09a10.6,10.6,0,0,1,3.63-2.21,13.69,13.69,0,0,1,9.11,0,10.61,10.61,0,0,1,3.61,2.21,10,10,0,0,1,2.38,3.35,10.78,10.78,0,0,1,0,8.44,10,10,0,0,1-2.38,3.37,10.77,10.77,0,0,1-3.61,2.21A12.79,12.79,0,0,1,189.23,62.24Zm0-5.52a4.44,4.44,0,0,0,3.22-1.34,4.68,4.68,0,0,0,1-1.59,6.81,6.81,0,0,0,0-4.25,4.73,4.73,0,0,0-1-1.58A4.24,4.24,0,0,0,191,47a4.51,4.51,0,0,0-1.77-.35,4.56,4.56,0,0,0-1.78.35A4.11,4.11,0,0,0,186,48a4.43,4.43,0,0,0-1,1.58,6.63,6.63,0,0,0,0,4.25,4.39,4.39,0,0,0,1,1.59,4.22,4.22,0,0,0,1.44,1A4.38,4.38,0,0,0,189.2,56.72Z"/><path class="cls-2" d="M203.09,61.78V41.56h5.6L219,53.86h-2.6V41.56H223V61.78h-5.6L207.13,49.47h2.6V61.78Z"/><path class="cls-2" d="M230.7,61.78V46.84h-5.92V41.56h18.66v5.28h-5.92V61.78Z"/><path class="cls-2" d="M251.9,56.63H262v5.15H245.2V41.56h16.43V46.7H251.9Zm-.46-7.56h9V54h-9Z"/><path class="cls-2" d="M264.64,61.78V41.56h5.6l10.28,12.3h-2.6V41.56h6.65V61.78H279L268.68,49.47h2.6V61.78Z"/><path class="cls-2" d="M287.86,61.78V41.56h10a13.6,13.6,0,0,1,5.95,1.23,9.43,9.43,0,0,1,4,3.48,9.75,9.75,0,0,1,1.44,5.37,9.86,9.86,0,0,1-1.44,5.41,9.47,9.47,0,0,1-4,3.5,13.6,13.6,0,0,1-5.95,1.23Zm6.81-5.32h2.86a5.45,5.45,0,0,0,2.53-.55,3.91,3.91,0,0,0,1.69-1.63,5.26,5.26,0,0,0,.61-2.64,5.13,5.13,0,0,0-.61-2.6,4,4,0,0,0-1.69-1.62,5.58,5.58,0,0,0-2.53-.55h-2.86Z"/><path class="cls-3" d="M133.29,85H119.17c-.93,0-1.06-.82-1.39-1.4l-.39-.65q-3.6-6.24-7.21-12.48c-.92-1.6-1.85-3.2-2.76-4.79l-6.31-10.92L90.92,37.13c-.3-.53-.62-1.05-1.06-1.79-1.16,2-2.25,3.94-3.35,5.82-.24.41-.48.83-.73,1.24l0,.08L85,43.62l-.13.27c-.24.63.11,1.06.41,1.5.07.1.14.19.2.29.2.36.41.72.62,1.08l.36.63a1,1,0,0,1,.08.14c1.81,3.14,3.61,6.28,5.43,9.41q4.26,7.41,8.55,14.83c.16.26.3.53.46.79l1,1.77.67,1.16c.45.78.9,1.55,1.34,2.33L105.31,80l1,1.78c.21.37.42.74.64,1.11.34.6.66,1.21,1.15,2.13H83l-.18-.39-5.69-9.84-1.42-2.48-.36-.61a1.46,1.46,0,0,0,1.21.45h9c.2-.82-.37-1.26-.66-1.77l-1.14-2c-.48-.82-1-1.65-1.42-2.47l-3.56-6.19-1.54-2.67c-.45-.76-.89-1.53-1.33-2.3-1.72-3-3.46-6-5.2-8.94a4.15,4.15,0,0,1-.39-.84,2.5,2.5,0,0,1,.32-2.15l.06-.11c.37-.62.87-1.46,1.46-2.47,1.3-2.22,3-5.18,4.69-8.06l5.45-9.45.31-.53c1.09-1.89,2.17-3.81,3.27-5.73L87,14.64c1-1.63,1.9-3.26,2.91-4.88l8.1,14L112,48l1,1.66c8.86,15.33,17.31,30,19.29,33.41.31.54.6,1.09,1.06,1.91Z"/><path class="cls-4" d="M82.84,84.65l-3.31-5.73-.34-.59-3.82-6.61h0a1.42,1.42,0,0,1-.2-.28L72,65.92c-.26-.44-.52-.89-.79-1.37l-1.86-3.21-.6-1.05-.27-.47,0,0-6.63-11.5-1.16-2-4.25-7.36L52,31.15c-3.3-5.71-6.33-11-8.62-14.91-.27-.49-.55-1-.8-1.39l-.33-.57-.31-.55-.49-.84-.19-.32L39.6,9.78v0c-.37.58-.65,1-.91,1.44-1.3,2.25-2.6,4.49-3.89,6.74l-1.11,1.92q-6.6,11.46-13.24,22.88a2.6,2.6,0,0,0,0,3.09c4.74,8.11,9.41,16.27,14.1,24.41,1.09,1.9,1.09,1.91-1.18,1.91s-4.49-.06-6.72,0a2.44,2.44,0,0,1-.55,0,2,2,0,0,1-1.54-1.22l0-.08q-4.47-7.87-9-15.7a4.14,4.14,0,0,0-.92-1.41,1.56,1.56,0,0,0-.34-.18v0C12,57.45,9.82,61.28,7.56,65.05a1.89,1.89,0,0,0,.15,2.25c2.68,4.59,5.44,9.12,7.91,13.81,1.37,2.59,2.77,4.64,6.1,4l.39,0c.76-.06,1.52-.17,2.28-.17h31.3c2.19,0,2.19,0,1.06-2s-2.14-3.72-3.22-5.58l-.39.1.39-.1c-1.1-1.9-2.2-3.81-3.3-5.7L35.31,45.89c-.16-.27-.4-.53-.58-.8l0,0a1.06,1.06,0,0,1-.08-1.2c1.59-2.8,3.23-5.59,4.93-8.52,2,3.48,9.47,16.35,16.25,28.1,2.12,3.67,4.18,7.23,6,10.36l2.09,3.65c1.26,2.18,2.31,4,3,5.3l.53.91A2.36,2.36,0,0,0,69.85,85H83ZM27.46,73.14c-.22-.16-.46-.32-.68-.49.22.17.46.33.68.48l.09.06Z"/><path class="cls-5" d="M82.9,85h-4L61.85,48.28l6.63,11.5,0,0,.27.47.6,1.05,1.86,3.21c.27.48.53.93.79,1.37l3.15,5.51a1.42,1.42,0,0,0,.2.28h0l4.16,7.2Z"/><path class="cls-5" d="M133.29,85h-4L112.24,48.25l6.64,11.5v0l.27.47.61,1,1.85,3.22c.28.47.54.93.79,1.36l3.16,5.51a1.45,1.45,0,0,0,.19.29h0l4.15,7.21Z"/><path class="cls-6" d="M83,85H69.85l-2.26-5.62L39.6,9.78l1.61,2.79,1,1.71Q51.38,30.2,60.56,46.11l0,0L79.15,78.34h0Z"/><path class="cls-7" d="M89.86,9.73,120.12,85h13.17Z"/><path class="cls-8" d="M41.29,24c-1.69,8.26-7.06,16.33-20.85,18.73Q27.1,31.32,33.68,19.86l1.11-1.92c1.29-2.25,2.59-4.49,3.89-6.74.26-.44.54-.86.91-1.44v0A38.46,38.46,0,0,1,41.29,24Z"/><path class="cls-9" d="M70.74,42.74Q77.4,31.33,84,19.86c.38-.64.74-1.28,1.11-1.92L89,11.2c.26-.44.54-.86.91-1.44v0C90.16,10.54,100.05,40.31,70.74,42.74Z"/><path class="cls-10" d="M55.69,85H24.39c-.76,0-1.52.11-2.28.17l-.39,0c-3.33.6-4.73-1.45-6.1-4-2.47-4.69-5.23-9.22-7.91-13.81a1.89,1.89,0,0,1-.15-2.25c2.26-3.77,4.43-7.6,6.67-11.47-.15.87-5.21,32.81,36,18.19,1.1,1.89,2.2,3.8,3.3,5.7l-.39.1.39-.1c1.08,1.86,2.15,3.73,3.22,5.58S57.88,85,55.69,85Z"/><path class="cls-11" d="M108.13,85H83l-.18-.39-5.69-9.84c3.78,1.21,8.84,1.43,15.65,0A72.82,72.82,0,0,0,101,72.56l1,1.77.67,1.16c.45.78.9,1.55,1.34,2.33h0L105.31,80l1,1.78c.21.37.42.74.64,1.11C107.32,83.48,107.64,84.09,108.13,85Z"/><path class="cls-5" d="M55.69,85H53.15L34.73,45.09c.18.27.42.53.58.8L50.23,71.77c1.1,1.89,2.2,3.8,3.3,5.7l-.39.1.39-.1c1.08,1.86,2.15,3.73,3.22,5.58S57.88,85,55.69,85Z"/><path class="cls-5" d="M108.13,85h-4.27L86.5,47.39a1,1,0,0,1,.08.14c1.81,3.14,3.61,6.28,5.43,9.41q4.26,7.41,8.55,14.83c.16.26.3.53.46.79l1,1.77.67,1.16c.45.78.9,1.55,1.34,2.33L105.31,80l1,1.78c.21.37.42.74.64,1.11C107.32,83.48,107.64,84.09,108.13,85Z"/><path class="cls-12" d="M55.69,85H38.29c10-3-3.56-39.93-3.56-39.93.18.28.42.54.58.81q7.45,12.93,14.92,25.87l3.3,5.71-.39.1.39-.1q1.62,2.79,3.22,5.58C57.88,85,57.88,85,55.69,85Z"/><path class="cls-12" d="M108.13,85H89.77c2.62-1.24,3.33-5.22,3-10.2-.6-9.85-5.13-23.65-6.66-28.07l.36.63a1,1,0,0,1,.08.14c1.81,3.14,3.61,6.28,5.43,9.41q4.26,7.41,8.55,14.83c.16.26.3.53.46.79l1,1.77.67,1.16c.45.78.9,1.55,1.34,2.33h0L105.31,80l1,1.78c.21.37.42.74.64,1.11C107.32,83.48,107.64,84.09,108.13,85Z"/><path class="cls-12" d="M83,85H69.85a2.36,2.36,0,0,1-2.4-1.38l-.53-.91a13.52,13.52,0,0,0,.67-3.33c.93-11.39-7.16-33.49-7.16-33.49l.13.18,0,0,.11.15a4.16,4.16,0,0,1,.32.45q7.46,12.95,14.93,25.88l3.29,5.71h0l.34.59,3.31,5.73Z"/><path class="cls-12" d="M133.29,85H119.17c-.92,0-1.06-.82-1.39-1.39L117.4,83c3.59-6.37-1.66-24.68-4.45-33.29,8.85,15.34,17.31,30,19.29,33.41C132.55,83.62,132.84,84.18,133.29,85Z"/></g></g></svg>