<svg xmlns="http://www.w3.org/2000/svg" viewBox="0 0 50 38"><defs><style>.cls-1{isolation:isolate;}.cls-2{fill:#d89f00;}.cls-3,.cls-4{fill:#ffd56c;}.cls-4,.cls-6{opacity:0.2;mix-blend-mode:screen;}.cls-5,.cls-6{fill:#3265cc;}</style></defs><g class="cls-1"><g id="Layer_1" data-name="Layer 1"><g id="moon_cloud"><path class="cls-2" d="M19.53,2.37a16.39,16.39,0,0,1,1.38,6.81,16.22,16.22,0,0,1-16.19,16,22,22,0,0,1-2.48-.74L2,24.36A16.3,16.3,0,0,0,16.75,34,15.89,15.89,0,0,0,32.52,18.3C32.52,10.38,27.12,3.56,19.53,2.37Z"/><path class="cls-3" d="M19.13,2.07a15.74,15.74,0,0,1,1.46,6.65A15.86,15.86,0,0,1,4.72,24.59a16.93,16.93,0,0,1-2.48-.19A15.87,15.87,0,1,0,19.13,2.07Z"/><path class="cls-4" d="M15.88,20a28.46,28.46,0,0,1,3.62-.24,23.89,23.89,0,0,1,12.18,3.06A15.86,15.86,0,0,0,19.13,2.07a15.74,15.74,0,0,1,1.46,6.65A15.82,15.82,0,0,1,15.88,20Z"/><path class="cls-5" d="M42.2,21.59a8.23,8.23,0,0,0-1.13.08,4.85,4.85,0,0,0-4.42-2.79c-.22,0-.44,0-.65,0a4.32,4.32,0,0,0-8.57-.34,4.06,4.06,0,0,0-1.1-.16A4.51,4.51,0,0,0,22,22.64a4.12,4.12,0,0,0-2.13-.6,4.53,4.53,0,0,0-4.38,4.67,4.53,4.53,0,0,0,4.38,4.66,4.48,4.48,0,0,0,.64-.05,4.4,4.4,0,0,0,4.09,3A4.2,4.2,0,0,0,26.3,34a7.23,7.23,0,0,0,5.19,2c2.87,0,5.3-1.4,6.08-3.33a4.14,4.14,0,0,0,2.62.94,4.38,4.38,0,0,0,4-2.91c2.23-.66,3.82-2.37,3.82-4.38C48.05,23.68,45.43,21.59,42.2,21.59Z"/><path class="cls-5" d="M42.2,21.27a8.23,8.23,0,0,0-1.13.08,4.85,4.85,0,0,0-4.42-2.79c-.22,0-.44,0-.65,0a4.32,4.32,0,0,0-8.57-.34,4.06,4.06,0,0,0-1.1-.16A4.51,4.51,0,0,0,22,22.32a4.12,4.12,0,0,0-2.13-.6,4.53,4.53,0,0,0-4.38,4.67,4.53,4.53,0,0,0,4.38,4.66,4.48,4.48,0,0,0,.64-.05,4.4,4.4,0,0,0,4.09,3,4.2,4.2,0,0,0,1.73-.38,7.23,7.23,0,0,0,5.19,2c2.87,0,5.3-1.4,6.08-3.33a4.14,4.14,0,0,0,2.62.94,4.38,4.38,0,0,0,4-2.91c2.23-.66,3.82-2.37,3.82-4.38C48.05,23.36,45.43,21.27,42.2,21.27Z"/><path class="cls-6" d="M31.76,25.09a61.7,61.7,0,0,1,16.11,2,3.67,3.67,0,0,0,.18-1.14c0-2.57-2.62-4.66-5.85-4.66a8.23,8.23,0,0,0-1.13.08,4.85,4.85,0,0,0-4.42-2.79c-.22,0-.44,0-.65,0a4.32,4.32,0,0,0-8.57-.34,4.06,4.06,0,0,0-1.1-.16A4.51,4.51,0,0,0,22,22.32a4.12,4.12,0,0,0-2.13-.6,4.53,4.53,0,0,0-4.38,4.67,5.51,5.51,0,0,0,.06.71A61.58,61.58,0,0,1,31.76,25.09Z"/></g></g></g></svg>