<?xml version="1.0" encoding="utf-8"?>
<!-- Generator: Adobe Illustrator 25.2.1, SVG Export Plug-In . SVG Version: 6.00 Build 0)  -->
<svg version="1.1" id="Layer_2" xmlns="http://www.w3.org/2000/svg" xmlns:xlink="http://www.w3.org/1999/xlink" x="0px" y="0px"
	 viewBox="0 0 100 100" style="enable-background:new 0 0 100 100;" xml:space="preserve">
<style type="text/css">
	.st0{fill:#009DCC;}
	.st1{fill:none;stroke:#009DCC;stroke-width:4;stroke-miterlimit:10;}
</style>
<circle class="st0" cx="49.9" cy="49.9" r="8.4"/>
<path class="st1" d="M49.9,32.9c11.2,0,21.7,1.6,29.5,4.3c9.5,3.3,15.3,8.2,15.3,12.7c0,4.7-6.2,9.9-16.3,13.3
	c-7.7,2.5-17.8,3.9-28.5,3.9c-10.9,0-21.3-1.2-29-3.9C11,59.8,5.1,54.5,5.1,49.9c0-4.4,5.6-9.3,14.9-12.6
	C27.9,34.6,38.6,32.9,49.9,32.9z"/>
<path class="st1" d="M35.1,41.5c5.6-9.7,12.2-18,18.5-23.4c7.6-6.6,14.8-9.2,18.6-6.9c4,2.3,5.5,10.3,3.3,20.8
	c-1.6,7.9-5.5,17.4-10.9,26.6C59.3,68,53,76.4,46.8,81.8c-7.8,6.8-15.4,9.3-19.4,7c-3.8-2.2-5.3-9.5-3.5-19.2
	C25.5,61.4,29.5,51.3,35.1,41.5z"/>
<path class="st1" d="M35.1,58.6c-5.6-9.7-9.5-19.5-11.1-27.7c-1.9-9.8-0.6-17.4,3.3-19.6C31.3,9,39,11.7,47,18.8
	c6.1,5.4,12.3,13.5,17.6,22.7c5.5,9.5,9.6,19,11.2,27.1c2,10.2,0.4,18-3.6,20.3c-3.8,2.2-10.9-0.1-18.4-6.6
	C47.6,76.8,40.8,68.4,35.1,58.6z"/>
</svg>
